<svg xmlns="http://www.w3.org/2000/svg" width="18" height="19" viewBox="0 0 18 19" fill="none">
<path opacity="0.2" d="M8.8478 2.13025C7.38131 2.13025 5.97487 2.71282 4.9379 3.74979C3.90093 4.78676 3.31836 6.19319 3.31836 7.65969C3.31836 12.6362 8.8478 16.5068 8.8478 16.5068C8.8478 16.5068 14.3772 12.6362 14.3772 7.65969C14.3772 6.19319 13.7947 4.78676 12.7577 3.74979C11.7207 2.71282 10.3143 2.13025 8.8478 2.13025ZM8.8478 9.87147C8.41036 9.87147 7.98273 9.74175 7.61901 9.49872C7.25528 9.25569 6.97179 8.91025 6.80439 8.5061C6.63698 8.10196 6.59318 7.65724 6.67852 7.2282C6.76387 6.79915 6.97452 6.40505 7.28384 6.09573C7.59316 5.78641 7.98727 5.57576 8.41631 5.49041C8.84535 5.40507 9.29006 5.44887 9.69421 5.61628C10.0984 5.78368 10.4438 6.06717 10.6868 6.4309C10.9299 6.79462 11.0596 7.22225 11.0596 7.65969C11.0596 8.24629 10.8265 8.80886 10.4118 9.22365C9.99697 9.63844 9.4344 9.87147 8.8478 9.87147Z" fill="#26C165"/>
<path d="M3.87109 16.5067H13.8241" stroke="#26C165" stroke-width="0.931275" stroke-linecap="round" stroke-linejoin="round"/>
<path d="M8.84654 9.87143C10.0681 9.87143 11.0583 8.88119 11.0583 7.65965C11.0583 6.43812 10.0681 5.44788 8.84654 5.44788C7.62501 5.44788 6.63477 6.43812 6.63477 7.65965C6.63477 8.88119 7.62501 9.87143 8.84654 9.87143Z" stroke="#26C165" stroke-width="0.931275" stroke-linecap="round" stroke-linejoin="round"/>
<path d="M14.3772 7.65969C14.3772 12.6362 8.8478 16.5068 8.8478 16.5068C8.8478 16.5068 3.31836 12.6362 3.31836 7.65969C3.31836 6.19319 3.90092 4.78676 4.9379 3.74979C5.97487 2.71281 7.3813 2.13025 8.8478 2.13025C10.3143 2.13025 11.7207 2.71281 12.7577 3.74979C13.7947 4.78676 14.3772 6.19319 14.3772 7.65969V7.65969Z" stroke="#26C165" stroke-width="0.931275" stroke-linecap="round" stroke-linejoin="round"/>
</svg>