<svg width="32" height="32" viewBox="0 0 32 32" fill="none" xmlns="http://www.w3.org/2000/svg">
<g id="Group">
<path id="Vector" d="M16.005 32.01C7.16544 32.01 0 24.8446 0 16.005C0 7.16544 7.16544 0 16.005 0C24.8446 0 32.01 7.16544 32.01 16.005C32.0004 24.8398 24.8398 32.0004 16.005 32.01ZM9.16606 20.4656C8.9596 20.4656 8.75473 20.4912 8.55307 20.5392L8.313 20.6048L7.3623 22.2325C7.18864 22.5222 7.13288 22.8675 7.20654 23.1971C7.28019 23.5267 7.47762 23.8154 7.75806 24.0036C8.0385 24.1918 8.3805 24.2651 8.71342 24.2083C9.04634 24.1516 9.34475 23.9691 9.54698 23.6986L9.64621 23.5498L10.9106 21.3555C10.7057 21.0814 10.4401 20.8584 10.1347 20.7041C9.82927 20.5497 9.49227 20.4681 9.15006 20.4656H9.16606ZM17.9432 10.6593C17.4452 11.1271 17.1151 11.7458 17.0037 12.4199C16.8253 13.3493 16.9962 14.312 17.4839 15.1231L22.3494 23.5514C22.5187 23.8363 22.7887 24.0473 23.1061 24.1427C23.4235 24.2381 23.7652 24.211 24.0635 24.0667C24.361 23.92 24.5922 23.6664 24.7109 23.3566C24.8296 23.0469 24.827 22.7038 24.7037 22.3958L24.6253 22.2357L23.3449 20.0094H25.2495C25.583 20.0067 25.9031 19.8774 26.1451 19.6478C26.387 19.4183 26.5329 19.1054 26.5532 18.7725C26.5735 18.4396 26.4668 18.1113 26.2545 17.854C26.0422 17.5967 25.7403 17.4296 25.4095 17.3862L25.2495 17.3766H21.8244L18.3129 11.2947L17.9464 10.6545L17.9432 10.6593ZM6.81813 17.3654C6.64614 17.3658 6.47593 17.4002 6.31723 17.4665C6.15854 17.5328 6.01448 17.6297 5.89331 17.7518C5.77214 17.8739 5.67625 18.0186 5.61111 18.1778C5.54597 18.337 5.51288 18.5074 5.51372 18.6794C5.51372 19.342 6.00668 19.9022 6.66448 19.987L6.82453 19.995H18.7963C18.9288 19.729 18.9954 19.435 18.9907 19.1379C18.986 18.8407 18.91 18.549 18.7691 18.2873C18.6492 18.0422 18.4707 17.8304 18.2492 17.671C18.0278 17.5115 17.7704 17.4093 17.4999 17.3734L17.3062 17.3638H13.2233L18.8699 7.58637C19.0438 7.28328 19.091 6.92376 19.0011 6.58606C18.9372 6.34907 18.8084 6.13463 18.6293 5.96686C18.4501 5.79909 18.2277 5.68464 17.987 5.63641C17.7463 5.58818 17.497 5.60806 17.267 5.69384C17.037 5.77961 16.8355 5.92786 16.6852 6.12191L16.586 6.26916L16.005 7.28387L15.4304 6.26916C15.2611 5.98385 14.9907 5.77255 14.673 5.6771C14.3552 5.58166 14.0132 5.60903 13.7147 5.7538C13.4173 5.90112 13.1863 6.15501 13.0677 6.46494C12.9491 6.77486 12.9515 7.1181 13.0745 7.42632L13.1529 7.58637L14.4813 9.9231L10.184 17.3654H6.81813Z" fill="#073042"/>
</g>
</svg>
