<svg xmlns="http://www.w3.org/2000/svg" width="18" height="19" viewBox="0 0 18 19" fill="none">
<path opacity="0.2" d="M6.39073 9.26335C6.9643 10.436 7.91481 11.3822 9.09002 11.9504C9.17601 11.9911 9.27112 12.0088 9.366 12.0016C9.46088 11.9944 9.55225 11.9627 9.63113 11.9094L11.3615 10.7556C11.4381 10.7045 11.5261 10.6734 11.6177 10.665C11.7093 10.6566 11.8016 10.6711 11.8861 10.7074L15.1234 12.0948C15.2334 12.1415 15.3252 12.2227 15.385 12.3261C15.4448 12.4295 15.4694 12.5496 15.4551 12.6682C15.3527 13.4689 14.9621 14.2048 14.3562 14.7382C13.7504 15.2716 12.9709 15.5658 12.1637 15.5659C9.67068 15.5659 7.27974 14.5755 5.51688 12.8127C3.75403 11.0498 2.76367 8.65886 2.76367 6.16581C2.76371 5.35863 3.05797 4.57914 3.59135 3.9733C4.12472 3.36745 4.86064 2.9768 5.66131 2.87448C5.77992 2.86012 5.89999 2.8847 6.00342 2.94452C6.10685 3.00434 6.18804 3.09615 6.23476 3.20612L7.62337 6.44623C7.65929 6.53004 7.67393 6.62142 7.66598 6.71226C7.65803 6.80309 7.62774 6.89055 7.57781 6.96684L6.42793 8.7238C6.37559 8.80284 6.34466 8.8941 6.33814 8.98867C6.33162 9.08324 6.34974 9.17788 6.39073 9.26335Z" fill="#26C165"/>
<path d="M6.39073 9.26335C6.9643 10.436 7.91481 11.3822 9.09002 11.9504C9.17601 11.9911 9.27112 12.0088 9.366 12.0016C9.46088 11.9944 9.55225 11.9627 9.63113 11.9094L11.3615 10.7556C11.4381 10.7045 11.5261 10.6734 11.6177 10.665C11.7093 10.6566 11.8016 10.6711 11.8861 10.7074L15.1234 12.0948C15.2334 12.1415 15.3252 12.2227 15.385 12.3261C15.4448 12.4295 15.4694 12.5496 15.4551 12.6682C15.3527 13.4689 14.9621 14.2048 14.3562 14.7382C13.7504 15.2716 12.9709 15.5658 12.1637 15.5659C9.67068 15.5659 7.27974 14.5755 5.51688 12.8127C3.75403 11.0498 2.76367 8.65886 2.76367 6.16581C2.76371 5.35863 3.05797 4.57914 3.59135 3.9733C4.12472 3.36745 4.86064 2.9768 5.66131 2.87448C5.77992 2.86012 5.89999 2.8847 6.00342 2.94452C6.10685 3.00434 6.18804 3.09615 6.23476 3.20612L7.62338 6.44623C7.65929 6.53004 7.67393 6.62142 7.66598 6.71226C7.65803 6.80309 7.62774 6.89055 7.5778 6.96684L6.42793 8.7238C6.37559 8.80284 6.34466 8.8941 6.33814 8.98867C6.33162 9.08324 6.34974 9.17788 6.39073 9.26335V9.26335Z" stroke="#26C165" stroke-width="0.931275" stroke-linecap="round" stroke-linejoin="round"/>
<path d="M11.0156 3.39752C11.953 3.64962 12.8077 4.1436 13.4941 4.82997C14.1804 5.51635 14.6744 6.37103 14.9265 7.3084" stroke="#26C165" stroke-width="0.931275" stroke-linecap="round" stroke-linejoin="round"/>
<path d="M10.4453 5.53143C11.0077 5.68269 11.5205 5.97908 11.9324 6.3909C12.3442 6.80273 12.6406 7.31554 12.7918 7.87796" stroke="#26C165" stroke-width="0.931275" stroke-linecap="round" stroke-linejoin="round"/>
</svg>